#!OML:ASF F:\VICON\USERDATA\INSTALL\rory3\rory3.ASF
:FULLY-SPECIFIED
:DEGREES
102
root 1.3051187875018098 17.91131411305416 53.449358130679464 -3.5705983127067085 0.467469280164011 -5.314552456690817
lfemur -18.820230532426493 -1.8677854443905082 -16.36763757205978
ltibia 39.31539422360896
lfoot -7.662424911615345 2.1132670786629646
ltoes -10.286841745662175
rfemur -3.8028822750608784 2.371498095141116 27.96473776569499
rtibia 34.26633553857315
rfoot -1.4719804609595046 -10.747413116833318
rtoes 5.111702607022962
lowerback -1.0 0.526736381423029 4.554513640582133
upperback -0.1143372348715832 1.6717041128116281 1.5003445579724577
thorax -5.100753719641355 0.8411075061308226 -1.0480360050297737
lowerneck -15.915499154941632 -3.321002876474244 -1.388695934811928
upperneck 21.704100645890385 -4.4052988859796995 0.48810768314016706
head 9.632546584995572 -2.1117849908299995 -0.2560764898257787
lclavicle 4.3257973372071257e-16 -7.982839742219214e-16
lhumerus -32.606223629662125 4.898128850454548 81.23681483900786
lradius 23.144326027881117
lwrist 9.175653769925038
lhand -28.537513836453368 19.66211947413113
lfingers nan
lthumb -2.2736209092809534 49.222496542870516
rclavicle 3.749552404827742e-16 -8.381906688543206e-16
rhumerus -27.049874468839022 -17.272189101323573 -77.35387249780581
rradius 33.3632664156364
rwrist 1.9231342090565957
rhand -18.000889945964563 -1.0
rfingers nan
rthumb 8.366164320036393 -8.20681189489569
103
root 1.3104862441600185 17.918578489775197 53.71200224017394 -3.585101103924063 0.9759859778159123 -4.660471943999463
lfemur -18.095953752363634 -2.4161882760196938 -17.586815124995226
ltibia 35.618155674363486
lfoot -7.455110239854365 1.0970164836401817
ltoes -9.857878263443052
rfemur -4.54846819788722 1.7486300202197436 26.939846047783284
rtibia 36.88390007820153
rfoot -1.0038730302013947 -11.717376089655072
rtoes 6.005550369091176
lowerback -1.0 0.47301451329857774 4.0630570385631035
upperback -0.11278931284274249 1.5103222620476193 1.3706470163716196
thorax -5.043357190890298 0.7714228069495669 -1.0027444756603763
lowerneck -15.905561720104687 -3.3341975833207895 -1.4455975343671439
upperneck 21.693480171954544 -4.436744204396906 0.6492063657978671
head 9.62665286851796 -2.118602345820225 -0.18669063132664665
lclavicle 4.332275132213798e-16 -7.979311106166218e-16
lhumerus -32.596705649291835 4.781446098266782 81.15821026146445
lradius 23.569354528522567
lwrist 9.119226496074585
lhand -28.538702631398422 19.54546551444488
lfingers nan
lthumb -2.275035466214059 49.14588115450805
rclavicle 3.7628704844427645e-16 -8.372977168188411e-16
rhumerus -27.002125081096278 -16.898518092900567 -77.63347369257906
rradius 33.34669616689134
rwrist 1.9031392012927344
rhand -18.002678661717404 -1.0
rfingers nan
rthumb 8.377897959693797 -8.214095164970416
104
root 1.3181545814770315 17.924963649010888 54.11868218304623 -3.5733223197729327 1.3639233741054801 -3.7781412637563565
lfemur -16.772526032986008 -2.8988691447252437 -18.92504805565033
ltibia 32.227246746425045
lfoot -7.0774004547393305 1.013050305631737
ltoes -9.805078772327345
rfemur -5.331798559587189 1.1834386315880234 25.822003953873907
rtibia 39.69070286700014
rfoot -1.002755829231722 -12.45994178753213
rtoes 6.5616365023918295
lowerback -1.0 0.3483029002067312 3.3418696746097325
upperback -0.10007691361249035 1.2210464873796085 1.227287642078067
thorax -5.026880827949761 0.6439172812915026 -0.7897746376022489
lowerneck -15.9287718403424 -3.3358302928897383 -1.472454738354874
upperneck 21.62908117828421 -4.446902875797913 0.8262259904804712
head 9.610510223945182 -2.1154804874697866 -0.1054604283585651
lclavicle 4.3393535045983536e-16 -7.971529153955653e-16
lhumerus -32.403129239694096 4.705622101723757 81.06460880742921
lradius 23.967243984728224
lwrist 9.016304359579015
lhand -28.492657000836818 19.531675643414665
lfingers nan
lthumb -2.242099268328265 49.10919910596766
rclavicle 3.7557959628811456e-16 -8.375948185879028e-16
rhumerus -27.03907653337598 -16.622647701329928 -77.92842136648339
rradius 33.31735733200878
rwrist 1.8664887822770257
rhand -18.000620328704606 -1.0
rfingers nan
rthumb 8.385239291991272 -8.234797542074277
105
root 1.329141514748099 17.930012543453135 54.628174440342114 -3.571357630212411 1.5743675569446691 -2.7211597317722944
lfemur -14.92635168215985 -3.2950161767863113 -20.375376456950484
ltibia 29.27842758183875
lfoot -7.330156463354992 -0.012450848620256139
ltoes -9.341181134882417
rfemur -6.579095473734028 0.6943728793897783 24.488744526938916
rtibia 42.70069987229225
rfoot -1.2695499121332574 -12.69201337453237
rtoes 6.9250985628130834
lowerback -1.0 0.24855257884871085 2.5322684136229703
upperback -0.07553984040146405 0.926173109723346 1.0787142014670101
thorax -5.032474128366907 0.5081199933264311 -0.5071629121574125
lowerneck -15.981478140051424 -3.328411895345668 -1.473054850940748
upperneck 21.531568427427437 -4.440138273356266 1.0058145792834376
head 9.59070541638153 -2.1044074004183804 -0.020422097841079165
lclavicle 4.343950884010101e-16 -7.958911012194527e-16
lhumerus -32.05204288926727 4.61648376341504 80.96620859090335
lradius 24.3399494283069
lwrist 8.829268409163035
lhand -28.471917641927092 19.458419733598525
lfingers nan
lthumb -2.2069562489451453 49.08367782677161
rclavicle 3.725309318786459e-16 -8.391087338672436e-16
rhumerus -27.154453534392335 -16.43153085071513 -78.24436934864808
rradius 33.2511649832893
rwrist 1.8065296744566925
rhand -18.018326795539892 -1.0
rfingers nan
rthumb 8.3928349124979 -8.252037973094689
106
root 1.33662613993177 17.92858264334152 54.71539257347751 -3.683488890365365 1.554292908963463 -1.7580570250039769
lfemur -12.676556455831655 -3.5902259775349004 -21.675905245024712
ltibia 26.766087883837077
lfoot -7.707925860709729 -0.39187527403227485
ltoes -9.046728612768398
rfemur -8.14565009240457 0.3497742882313042 23.377788602598006
rtibia 45.84047991670139
rfoot -1.7714722406793824 -12.20471561784093
rtoes 7.192213872617985
lowerback -1.0 0.09924049862422418 1.6475144991471544
upperback -0.041314530312875186 0.5781906599837309 0.9436980215486699
thorax -5.052135632968867 0.3412809403109008 -0.1537324153981645
lowerneck -16.050630073615523 -3.3115681386737195 -1.4537875423931066
upperneck 21.422626797688654 -4.415168390838663 1.1707565823111667
head 9.572245112557326 -2.0859724074472252 0.06049038980471305
lclavicle 4.3469924539419023e-16 -7.944142079077341e-16
lhumerus -31.548498740055155 4.518256031463555 80.87820489307707
lradius 24.66486095266818
lwrist 8.582664514361781
lhand -28.41683280519167 19.48746252507423
lfingers nan
lthumb -2.1460929154368173 49.10877505678132
rclavicle 3.6830917003553667e-16 -8.412362965950541e-16
rhumerus -27.34751016766429 -16.368055741189796 -78.59876748878274
rradius 33.121526442239954
rwrist 1.7244209137635926
rhand -18.006851992002346 -1.0
rfingers nan
rthumb 8.400398158563949 -8.263809454351257
107
root 1.3394162416203992 17.926187411086016 54.913048088825605 -3.6411723049272773 1.4336892871445372 -1.2872402951106467
lfemur -10.43959053484377 -3.843742148574167 -22.519669084988998
ltibia 24.973245691163616
lfoot -7.755348133530028 -1.0066129100982224
ltoes -8.61794868057309
rfemur -10.599891284037108 0.08655956340252402 22.66049591667569
rtibia 49.18087771521175
rfoot -2.460929069958694 -11.17690734637608
rtoes 7.34279499906736
lowerback -1.0 -0.05730858067686828 1.1809251715619242
upperback -0.03038696827537432 0.2877728353928871 0.8986572637655862
thorax -5.115607217401614 0.18945075496380098 0.14736498170548595
lowerneck -16.130506328741653 -3.287544183385446 -1.4235379277158207
upperneck 21.318966612813018 -4.375418331332183 1.3027661524774574
head 9.557917298162238 -2.0628117841478977 0.12824246698911976
lclavicle 4.350774611862009e-16 -7.925592608703247e-16
lhumerus -31.018014834917636 4.29282696465358 80.7902148050617
lradius 24.955039699362334
lwrist 8.299268031210454
lhand -28.393672104727056 19.47111503478223
lfingers nan
lthumb -2.1054247997531856 49.1418224466649
rclavicle 3.6277672407117845e-16 -8.441029962078385e-16
rhumerus -27.594624019244566 -16.471459035061407 -78.97432841477541
rradius 32.939371037105204
rwrist 1.6418560195830372
rhand -18.020628788304517 -1.0
rfingers nan
rthumb 8.398679561692356 -8.287575993075471
